<svg xmlns="http://www.w3.org/2000/svg" viewBox="0 0 300 148" role="img" aria-label="nostos restaurantes">
  <rect width="300" height="148" fill="#16403C"/>
  <path d="M 32.07470703125 92.0 L 32.07470703125 40.0 L 84.07470703125 40.0 L 84.07470703125 73.6470588235294 L 50.42764820772059 73.6470588235294 L 50.42764820772059 58.35294117647059 L 68.78058938419117 58.35294117647059" fill="none" stroke="#B0461F" stroke-width="9.18" stroke-linecap="butt" stroke-linejoin="miter"/>
  <path d="M101.64697265625 80.56V77.8422265625H105.03857421875V59.401796875H101.64697265625V56.6840234375H112.98974609375V60.0531640625Q114.42724609375 57.919375 116.26904296875 56.976015625Q118.11083984375 56.03265625 120.91845703125 56.03265625Q124.93896484375 56.03265625 126.994140625 58.40228515625Q129.04931640625 60.7719140625 129.04931640625 65.37640625V77.8422265625H132.46337890625V80.56H118.20068359375V77.8422265625H121.09814453125V65.151796875Q121.09814453125 62.1195703125 120.3232421875 60.94037109375Q119.54833984375 59.761171875 117.63916015625 59.761171875Q115.23583984375 59.761171875 114.11279296875 61.52435546875Q112.98974609375 63.2875390625 112.98974609375 67.128359375V77.8422265625H115.90966796875V80.56Z" fill="#FBF7F0"/><path d="M148.88232421875 78.67328125Q151.39794921875 78.67328125 152.419921875 76.51703125Q153.44189453125 74.36078125 153.44189453125 68.61078125Q153.44189453125 62.86078125 152.43115234375 60.71576171875Q151.42041015625 58.5707421875 148.88232421875 58.5707421875Q146.34423828125 58.5707421875 145.31103515625 60.73822265625Q144.27783203125 62.905703125 144.27783203125 68.61078125Q144.27783203125 74.315859375 145.31103515625 76.4945703125Q146.34423828125 78.67328125 148.88232421875 78.67328125ZM148.88232421875 81.2113671875Q142.57080078125 81.2113671875 138.98828125 77.85345703125Q135.40576171875 74.495546875 135.40576171875 68.61078125Q135.40576171875 62.7035546875 138.98828125 59.36810546875Q142.57080078125 56.03265625 148.88232421875 56.03265625Q155.21630859375 56.03265625 158.78759765625 59.36810546875Q162.35888671875 62.7035546875 162.35888671875 68.61078125Q162.35888671875 74.495546875 158.7763671875 77.85345703125Q155.19384765625 81.2113671875 148.88232421875 81.2113671875Z" fill="#FBF7F0"/><path d="M166.35693359375 79.8637109375V73.1928125H168.89501953125Q169.20947265625 75.8656640625 170.89404296875 77.26947265625Q172.57861328125 78.67328125 175.47607421875 78.67328125Q177.90185546875 78.67328125 179.193359375 77.83099609375Q180.48486328125 76.9887109375 180.48486328125 75.4164453125Q180.48486328125 73.9789453125 179.6650390625 73.1928125Q178.84521484375 72.4066796875 176.48681640625 71.8226953125L173.20751953125 70.991640625Q169.50146484375 70.0707421875 167.83935546875 68.35248046875Q166.17724609375 66.63421875 166.17724609375 63.714296875Q166.17724609375 59.8285546875 168.87255859375 57.93060546875Q171.56787109375 56.03265625 177.18310546875 56.03265625Q179.29443359375 56.03265625 181.6865234375 56.38080078125Q184.07861328125 56.7289453125 186.97607421875 57.47015625V63.4896875H184.43798828125Q184.23583984375 61.0414453125 182.697265625 59.80609375Q181.15869140625 58.5707421875 178.28369140625 58.5707421875Q175.85791015625 58.5707421875 174.611328125 59.34564453125Q173.36474609375 60.120546875 173.36474609375 61.60296875Q173.36474609375 62.815859375 174.08349609375 63.5121484375Q174.80224609375 64.2084375 176.66650390625 64.6801171875L179.92333984375 65.511171875Q184.61767578125 66.7016015625 186.41455078125 68.4535546875Q188.21142578125 70.2055078125 188.21142578125 73.327578125Q188.21142578125 77.370546875 185.3251953125 79.29095703125Q182.43896484375 81.2113671875 176.35205078125 81.2113671875Q174.12841796875 81.2113671875 171.63525390625 80.874453125Q169.14208984375 80.5375390625 166.35693359375 79.8637109375Z" fill="#FBF7F0"/><path d="M194.65771484375 59.401796875H191.19873046875V56.6840234375H194.65771484375V49.2719140625H202.60888671875V56.6840234375H209.23486328125V59.401796875H202.60888671875V74.0238671875Q202.60888671875 77.1459375 203.10302734375 77.909609375Q203.59716796875 78.67328125 204.89990234375 78.67328125Q206.33740234375 78.67328125 207.03369140625 77.7074609375Q207.72998046875 76.741640625 207.77490234375 74.72015625H211.12158203125Q210.91943359375 78.31390625 209.15625 79.76263671875Q207.39306640625 81.2113671875 203.08056640625 81.2113671875Q198.16162109375 81.2113671875 196.40966796875 79.67279296875Q194.65771484375 78.13421875 194.65771484375 74.0238671875Z" fill="#FBF7F0"/><path d="M226.70947265625 78.67328125Q229.22509765625 78.67328125 230.2470703125 76.51703125Q231.26904296875 74.36078125 231.26904296875 68.61078125Q231.26904296875 62.86078125 230.25830078125 60.71576171875Q229.24755859375 58.5707421875 226.70947265625 58.5707421875Q224.17138671875 58.5707421875 223.13818359375 60.73822265625Q222.10498046875 62.905703125 222.10498046875 68.61078125Q222.10498046875 74.315859375 223.13818359375 76.4945703125Q224.17138671875 78.67328125 226.70947265625 78.67328125ZM226.70947265625 81.2113671875Q220.39794921875 81.2113671875 216.8154296875 77.85345703125Q213.23291015625 74.495546875 213.23291015625 68.61078125Q213.23291015625 62.7035546875 216.8154296875 59.36810546875Q220.39794921875 56.03265625 226.70947265625 56.03265625Q233.04345703125 56.03265625 236.61474609375 59.36810546875Q240.18603515625 62.7035546875 240.18603515625 68.61078125Q240.18603515625 74.495546875 236.603515625 77.85345703125Q233.02099609375 81.2113671875 226.70947265625 81.2113671875Z" fill="#FBF7F0"/><path d="M244.18408203125 79.8637109375V73.1928125H246.72216796875Q247.03662109375 75.8656640625 248.72119140625 77.26947265625Q250.40576171875 78.67328125 253.30322265625 78.67328125Q255.72900390625 78.67328125 257.0205078125 77.83099609375Q258.31201171875 76.9887109375 258.31201171875 75.4164453125Q258.31201171875 73.9789453125 257.4921875 73.1928125Q256.67236328125 72.4066796875 254.31396484375 71.8226953125L251.03466796875 70.991640625Q247.32861328125 70.0707421875 245.66650390625 68.35248046875Q244.00439453125 66.63421875 244.00439453125 63.714296875Q244.00439453125 59.8285546875 246.69970703125 57.93060546875Q249.39501953125 56.03265625 255.01025390625 56.03265625Q257.12158203125 56.03265625 259.513671875 56.38080078125Q261.90576171875 56.7289453125 264.80322265625 57.47015625V63.4896875H262.26513671875Q262.06298828125 61.0414453125 260.5244140625 59.80609375Q258.98583984375 58.5707421875 256.11083984375 58.5707421875Q253.68505859375 58.5707421875 252.4384765625 59.34564453125Q251.19189453125 60.120546875 251.19189453125 61.60296875Q251.19189453125 62.815859375 251.91064453125 63.5121484375Q252.62939453125 64.2084375 254.49365234375 64.6801171875L257.75048828125 65.511171875Q262.44482421875 66.7016015625 264.24169921875 68.4535546875Q266.03857421875 70.2055078125 266.03857421875 73.327578125Q266.03857421875 77.370546875 263.15234375 79.29095703125Q260.26611328125 81.2113671875 254.17919921875 81.2113671875Q251.95556640625 81.2113671875 249.46240234375 80.874453125Q246.96923828125 80.5375390625 244.18408203125 79.8637109375Z" fill="#FBF7F0"/>
  <path d="M106.76708984375 97.2797265625V99.0980859375H106.04248046875Q106.00830078125 98.558046875 105.74169921875 98.2914453125Q105.47509765625 98.02484375 104.96240234375 98.02484375Q104.03271484375 98.02484375 103.537109375 98.667421875Q103.04150390625 99.31 103.04150390625 100.513125V103.835390625H104.49755859375V104.56H100.64892578125V103.835390625H101.78369140625V98.011171875H100.58056640625V97.2933984375H103.04150390625V98.585390625Q103.41064453125 97.8266015625 103.99169921875 97.46087890625Q104.57275390625 97.09515625 105.40673828125 97.09515625Q105.71435546875 97.09515625 106.052734375 97.1430078125Q106.39111328125 97.190859375 106.76708984375 97.2797265625Z" fill="#B0461F"/><path d="M116.55498046875 101.06H111.13408203125V101.1146875Q111.13408203125 102.5844140625 111.68779296875 103.33294921875Q112.24150390625 104.081484375 113.32158203125 104.081484375Q114.14873046875 104.081484375 114.678515625 103.64740234375Q115.20830078125 103.2133203125 115.42021484375 102.358828125H116.43193359375Q116.13115234375 103.5551171875 115.32109375 104.1566796875Q114.51103515625 104.7582421875 113.19169921875 104.7582421875Q111.59892578125 104.7582421875 110.631640625 103.70892578125Q109.66435546875 102.659609375 109.66435546875 100.92328125Q109.66435546875 99.200625 110.61455078125 98.147890625Q111.56474609375 97.09515625 113.10966796875 97.09515625Q114.75712890625 97.09515625 115.63896484375 98.11029296875Q116.52080078125 99.1254296875 116.55498046875 101.06ZM115.07158203125 100.335390625Q115.03056640625 99.06390625 114.5349609375 98.41791015625Q114.03935546875 97.7719140625 113.10966796875 97.7719140625Q112.24150390625 97.7719140625 111.74248046875 98.421328125Q111.24345703125 99.0707421875 111.13408203125 100.335390625Z" fill="#B0461F"/><path d="M120.23837890625 104.1566796875V102.4613671875H120.96298828125Q120.99033203125 103.27484375 121.472265625 103.6781640625Q121.95419921875 104.081484375 122.89755859375 104.081484375Q123.74521484375 104.081484375 124.18955078125 103.76361328125Q124.63388671875 103.4457421875 124.63388671875 102.83734375Q124.63388671875 102.358828125 124.3091796875 102.0648828125Q123.98447265625 101.7709375 122.93857421875 101.4359765625L122.02939453125 101.128359375Q121.09287109375 100.827578125 120.6724609375 100.37640625Q120.25205078125 99.925234375 120.25205078125 99.22796875Q120.25205078125 98.229921875 120.98349609375 97.6625390625Q121.71494140625 97.09515625 123.00693359375 97.09515625Q123.58115234375 97.09515625 124.21689453125 97.245546875Q124.85263671875 97.3959375 125.52939453125 97.683046875V99.268984375H124.80478515625Q124.77744140625 98.5648828125 124.31259765625 98.1683984375Q123.84775390625 97.7719140625 123.04794921875 97.7719140625Q122.25498046875 97.7719140625 121.8482421875 98.0521875Q121.44150390625 98.3324609375 121.44150390625 98.8930078125Q121.44150390625 99.351015625 121.74912109375 99.62787109375Q122.05673828125 99.9047265625 122.97958984375 100.1918359375L123.97763671875 100.499453125Q125.00986328125 100.8207421875 125.464453125 101.30267578125Q125.91904296875 101.784609375 125.91904296875 102.5433984375Q125.91904296875 103.575625 125.1294921875 104.16693359375Q124.33994140625 104.7582421875 122.95224609375 104.7582421875Q122.24814453125 104.7582421875 121.57822265625 104.6078515625Q120.90830078125 104.4574609375 120.23837890625 104.1566796875Z" fill="#B0461F"/><path d="M130.34755859375 98.02484375H129.24013671875V97.2933984375H130.34755859375V95.0375390625H131.61220703125V97.2933984375H133.97744140625V98.02484375H131.61220703125V102.6391015625Q131.61220703125 103.561953125 131.78994140625 103.82171875Q131.96767578125 104.081484375 132.44619140625 104.081484375Q132.93837890625 104.081484375 133.16396484375 103.79095703125Q133.38955078125 103.5004296875 133.40322265625 102.851015625H134.35341796875Q134.29873046875 103.8422265625 133.81337890625 104.300234375Q133.32802734375 104.7582421875 132.33681640625 104.7582421875Q131.24990234375 104.7582421875 130.79873046875 104.27630859375Q130.34755859375 103.794375 130.34755859375 102.6391015625Z" fill="#B0461F"/><path d="M142.23408203124998 102.276796875V100.7387109375H140.61396484374998Q139.67744140624998 100.7387109375 139.21943359374998 101.14203125Q138.76142578124998 101.5453515625 138.76142578124998 102.3793359375Q138.76142578124998 103.138125 139.22626953124998 103.5824609375Q139.69111328124998 104.026796875 140.48408203124998 104.026796875Q141.27021484374998 104.026796875 141.75214843749998 103.5414453125Q142.23408203124998 103.05609375 142.23408203124998 102.276796875ZM143.49189453124998 100.0209375V103.835390625H144.61298828124998V104.56H142.23408203124998V103.7738671875Q141.81708984374998 104.2797265625 141.27021484374998 104.518984375Q140.72333984374998 104.7582421875 139.99189453124998 104.7582421875Q138.78193359374998 104.7582421875 138.07099609374998 104.1156640625Q137.36005859374998 103.4730859375 137.36005859374998 102.3793359375Q137.36005859374998 101.25140625 138.17353515624998 100.6293359375Q138.98701171874998 100.007265625 140.47041015624998 100.007265625H142.23408203124998V99.5082421875Q142.23408203124998 98.68109375 141.73164062499998 98.22650390625Q141.22919921874998 97.7719140625 140.32001953124998 97.7719140625Q139.56806640624998 97.7719140625 139.12373046874998 98.1137109375Q138.67939453124998 98.4555078125 138.57001953124998 99.1254296875H137.92060546874998V97.655703125Q138.57685546874998 97.3754296875 139.19550781249998 97.23529296875Q139.81416015624998 97.09515625 140.40205078124998 97.09515625Q141.91279296874998 97.09515625 142.70234374999998 97.84369140625Q143.49189453124998 98.5922265625 143.49189453124998 100.0209375Z" fill="#B0461F"/><path d="M152.16552734374997 97.2933984375H154.51708984374997V103.835390625H155.70654296874997V104.56H153.25927734374997V103.27484375Q152.91064453124997 103.999453125 152.35693359374997 104.37884765625Q151.80322265624997 104.7582421875 151.07177734374997 104.7582421875Q149.86181640624997 104.7582421875 149.29101562499997 104.07123046875Q148.72021484374997 103.38421875 148.72021484374997 101.9144921875V98.02484375H147.58544921874997V97.2933984375H149.98486328124997V101.52484375Q149.98486328124997 102.851015625 150.30957031249997 103.343203125Q150.63427734374997 103.835390625 151.46826171874997 103.835390625Q152.34326171874997 103.835390625 152.80126953124997 103.1928125Q153.25927734374997 102.550234375 153.25927734374997 101.3266015625V98.02484375H152.16552734374997Z" fill="#B0461F"/><path d="M165.11845703124996 97.2797265625V99.0980859375H164.39384765624996Q164.35966796874996 98.558046875 164.09306640624996 98.2914453125Q163.82646484374996 98.02484375 163.31376953124996 98.02484375Q162.38408203124996 98.02484375 161.88847656249996 98.667421875Q161.39287109374996 99.31 161.39287109374996 100.513125V103.835390625H162.84892578124996V104.56H159.00029296874996V103.835390625H160.13505859374996V98.011171875H158.93193359374996V97.2933984375H161.39287109374996V98.585390625Q161.76201171874996 97.8266015625 162.34306640624996 97.46087890625Q162.92412109374996 97.09515625 163.75810546874996 97.09515625Q164.06572265624996 97.09515625 164.40410156249996 97.1430078125Q164.74248046874996 97.190859375 165.11845703124996 97.2797265625Z" fill="#B0461F"/><path d="M172.88974609374995 102.276796875V100.7387109375H171.26962890624995Q170.33310546874995 100.7387109375 169.87509765624995 101.14203125Q169.41708984374995 101.5453515625 169.41708984374995 102.3793359375Q169.41708984374995 103.138125 169.88193359374995 103.5824609375Q170.34677734374995 104.026796875 171.13974609374995 104.026796875Q171.92587890624995 104.026796875 172.40781249999995 103.5414453125Q172.88974609374995 103.05609375 172.88974609374995 102.276796875ZM174.14755859374995 100.0209375V103.835390625H175.26865234374995V104.56H172.88974609374995V103.7738671875Q172.47275390624995 104.2797265625 171.92587890624995 104.518984375Q171.37900390624995 104.7582421875 170.64755859374995 104.7582421875Q169.43759765624995 104.7582421875 168.72666015624995 104.1156640625Q168.01572265624995 103.4730859375 168.01572265624995 102.3793359375Q168.01572265624995 101.25140625 168.82919921874995 100.6293359375Q169.64267578124995 100.007265625 171.12607421874995 100.007265625H172.88974609374995V99.5082421875Q172.88974609374995 98.68109375 172.38730468749995 98.22650390625Q171.88486328124995 97.7719140625 170.97568359374995 97.7719140625Q170.22373046874995 97.7719140625 169.77939453124995 98.1137109375Q169.33505859374995 98.4555078125 169.22568359374995 99.1254296875H168.57626953124995V97.655703125Q169.23251953124995 97.3754296875 169.85117187499995 97.23529296875Q170.46982421874995 97.09515625 171.05771484374995 97.09515625Q172.56845703124995 97.09515625 173.35800781249995 97.84369140625Q174.14755859374995 98.5922265625 174.14755859374995 100.0209375Z" fill="#B0461F"/><path d="M178.43935546874994 104.56V103.835390625H179.57412109374994V98.02484375H178.37099609374994V97.2933984375H180.83193359374994V98.585390625Q181.18056640624994 97.847109375 181.73769531249994 97.4711328125Q182.29482421874994 97.09515625 183.03310546874994 97.09515625Q184.23623046874994 97.09515625 184.80361328124994 97.7855859375Q185.37099609374994 98.476015625 185.37099609374994 99.93890625V103.835390625H186.49208984374994V104.56H183.01943359374994V103.835390625H184.10634765624994V100.335390625Q184.10634765624994 99.0023828125 183.77822265624994 98.50677734375Q183.45009765624994 98.011171875 182.62294921874994 98.011171875Q181.74794921874994 98.011171875 181.28994140624994 98.65033203125Q180.83193359374994 99.2894921875 180.83193359374994 100.513125V103.835390625H181.92568359374994V104.56Z" fill="#B0461F"/><path d="M190.59248046874993 98.02484375H189.48505859374993V97.2933984375H190.59248046874993V95.0375390625H191.85712890624993V97.2933984375H194.22236328124993V98.02484375H191.85712890624993V102.6391015625Q191.85712890624993 103.561953125 192.03486328124993 103.82171875Q192.21259765624993 104.081484375 192.69111328124993 104.081484375Q193.18330078124993 104.081484375 193.40888671874993 103.79095703125Q193.63447265624993 103.5004296875 193.64814453124993 102.851015625H194.59833984374993Q194.54365234374993 103.8422265625 194.05830078124993 104.300234375Q193.57294921874993 104.7582421875 192.58173828124993 104.7582421875Q191.49482421874993 104.7582421875 191.04365234374993 104.27630859375Q190.59248046874993 103.794375 190.59248046874993 102.6391015625Z" fill="#B0461F"/><path d="M204.49560546874991 101.06H199.07470703124991V101.1146875Q199.07470703124991 102.5844140625 199.62841796874991 103.33294921875Q200.18212890624991 104.081484375 201.26220703124991 104.081484375Q202.08935546874991 104.081484375 202.61914062499991 103.64740234375Q203.14892578124991 103.2133203125 203.36083984374991 102.358828125H204.37255859374991Q204.07177734374991 103.5551171875 203.26171874999991 104.1566796875Q202.45166015624991 104.7582421875 201.13232421874991 104.7582421875Q199.53955078124991 104.7582421875 198.57226562499991 103.70892578125Q197.60498046874991 102.659609375 197.60498046874991 100.92328125Q197.60498046874991 99.200625 198.55517578124991 98.147890625Q199.50537109374991 97.09515625 201.05029296874991 97.09515625Q202.69775390624991 97.09515625 203.57958984374991 98.11029296875Q204.46142578124991 99.1254296875 204.49560546874991 101.06ZM203.01220703124991 100.335390625Q202.97119140624991 99.06390625 202.47558593749991 98.41791015625Q201.97998046874991 97.7719140625 201.05029296874991 97.7719140625Q200.18212890624991 97.7719140625 199.68310546874991 98.421328125Q199.18408203124991 99.0707421875 199.07470703124991 100.335390625Z" fill="#B0461F"/><path d="M208.1790039062499 104.1566796875V102.4613671875H208.9036132812499Q208.9309570312499 103.27484375 209.4128906249999 103.6781640625Q209.8948242187499 104.081484375 210.8381835937499 104.081484375Q211.6858398437499 104.081484375 212.1301757812499 103.76361328125Q212.5745117187499 103.4457421875 212.5745117187499 102.83734375Q212.5745117187499 102.358828125 212.2498046874999 102.0648828125Q211.9250976562499 101.7709375 210.8791992187499 101.4359765625L209.9700195312499 101.128359375Q209.0334960937499 100.827578125 208.6130859374999 100.37640625Q208.1926757812499 99.925234375 208.1926757812499 99.22796875Q208.1926757812499 98.229921875 208.9241210937499 97.6625390625Q209.6555664062499 97.09515625 210.9475585937499 97.09515625Q211.5217773437499 97.09515625 212.1575195312499 97.245546875Q212.7932617187499 97.3959375 213.4700195312499 97.683046875V99.268984375H212.7454101562499Q212.7180664062499 98.5648828125 212.2532226562499 98.1683984375Q211.7883789062499 97.7719140625 210.9885742187499 97.7719140625Q210.1956054687499 97.7719140625 209.7888671874999 98.0521875Q209.3821289062499 98.3324609375 209.3821289062499 98.8930078125Q209.3821289062499 99.351015625 209.6897460937499 99.62787109375Q209.9973632812499 99.9047265625 210.9202148437499 100.1918359375L211.9182617187499 100.499453125Q212.9504882812499 100.8207421875 213.4050781249999 101.30267578125Q213.8596679687499 101.784609375 213.8596679687499 102.5433984375Q213.8596679687499 103.575625 213.0701171874999 104.16693359375Q212.2805664062499 104.7582421875 210.8928710937499 104.7582421875Q210.1887695312499 104.7582421875 209.5188476562499 104.6078515625Q208.8489257812499 104.4574609375 208.1790039062499 104.1566796875Z" fill="#B0461F"/>
</svg>