<svg xmlns="http://www.w3.org/2000/svg" viewBox="0 0 300 148" role="img" aria-label="nostos ">
  <rect width="300" height="148" fill="#16403C"/>
  <path d="M 32.07470703125 100.0 L 32.07470703125 48.0 L 84.07470703125 48.0 L 84.07470703125 81.6470588235294 L 50.42764820772059 81.6470588235294 L 50.42764820772059 66.35294117647058 L 68.78058938419117 66.35294117647058" fill="none" stroke="#C08A2B" stroke-width="9.18" stroke-linecap="butt" stroke-linejoin="miter"/>
  <path d="M101.64697265625 88.56V85.8422265625H105.03857421875V67.401796875H101.64697265625V64.6840234375H112.98974609375V68.0531640625Q114.42724609375 65.919375 116.26904296875 64.976015625Q118.11083984375 64.03265625 120.91845703125 64.03265625Q124.93896484375 64.03265625 126.994140625 66.40228515625Q129.04931640625 68.7719140625 129.04931640625 73.37640625V85.8422265625H132.46337890625V88.56H118.20068359375V85.8422265625H121.09814453125V73.151796875Q121.09814453125 70.1195703125 120.3232421875 68.94037109375Q119.54833984375 67.761171875 117.63916015625 67.761171875Q115.23583984375 67.761171875 114.11279296875 69.52435546875Q112.98974609375 71.2875390625 112.98974609375 75.128359375V85.8422265625H115.90966796875V88.56Z" fill="#FBF7F0"/><path d="M148.88232421875 86.67328125Q151.39794921875 86.67328125 152.419921875 84.51703125Q153.44189453125 82.36078125 153.44189453125 76.61078125Q153.44189453125 70.86078125 152.43115234375 68.71576171875Q151.42041015625 66.5707421875 148.88232421875 66.5707421875Q146.34423828125 66.5707421875 145.31103515625 68.73822265625Q144.27783203125 70.905703125 144.27783203125 76.61078125Q144.27783203125 82.315859375 145.31103515625 84.4945703125Q146.34423828125 86.67328125 148.88232421875 86.67328125ZM148.88232421875 89.2113671875Q142.57080078125 89.2113671875 138.98828125 85.85345703125Q135.40576171875 82.495546875 135.40576171875 76.61078125Q135.40576171875 70.7035546875 138.98828125 67.36810546875Q142.57080078125 64.03265625 148.88232421875 64.03265625Q155.21630859375 64.03265625 158.78759765625 67.36810546875Q162.35888671875 70.7035546875 162.35888671875 76.61078125Q162.35888671875 82.495546875 158.7763671875 85.85345703125Q155.19384765625 89.2113671875 148.88232421875 89.2113671875Z" fill="#FBF7F0"/><path d="M166.35693359375 87.8637109375V81.1928125H168.89501953125Q169.20947265625 83.8656640625 170.89404296875 85.26947265625Q172.57861328125 86.67328125 175.47607421875 86.67328125Q177.90185546875 86.67328125 179.193359375 85.83099609375Q180.48486328125 84.9887109375 180.48486328125 83.4164453125Q180.48486328125 81.9789453125 179.6650390625 81.1928125Q178.84521484375 80.4066796875 176.48681640625 79.8226953125L173.20751953125 78.991640625Q169.50146484375 78.0707421875 167.83935546875 76.35248046875Q166.17724609375 74.63421875 166.17724609375 71.714296875Q166.17724609375 67.8285546875 168.87255859375 65.93060546875Q171.56787109375 64.03265625 177.18310546875 64.03265625Q179.29443359375 64.03265625 181.6865234375 64.38080078125Q184.07861328125 64.7289453125 186.97607421875 65.47015625V71.4896875H184.43798828125Q184.23583984375 69.0414453125 182.697265625 67.80609375Q181.15869140625 66.5707421875 178.28369140625 66.5707421875Q175.85791015625 66.5707421875 174.611328125 67.34564453125Q173.36474609375 68.120546875 173.36474609375 69.60296875Q173.36474609375 70.815859375 174.08349609375 71.5121484375Q174.80224609375 72.2084375 176.66650390625 72.6801171875L179.92333984375 73.511171875Q184.61767578125 74.7016015625 186.41455078125 76.4535546875Q188.21142578125 78.2055078125 188.21142578125 81.327578125Q188.21142578125 85.370546875 185.3251953125 87.29095703125Q182.43896484375 89.2113671875 176.35205078125 89.2113671875Q174.12841796875 89.2113671875 171.63525390625 88.874453125Q169.14208984375 88.5375390625 166.35693359375 87.8637109375Z" fill="#FBF7F0"/><path d="M194.65771484375 67.401796875H191.19873046875V64.6840234375H194.65771484375V57.2719140625H202.60888671875V64.6840234375H209.23486328125V67.401796875H202.60888671875V82.0238671875Q202.60888671875 85.1459375 203.10302734375 85.909609375Q203.59716796875 86.67328125 204.89990234375 86.67328125Q206.33740234375 86.67328125 207.03369140625 85.7074609375Q207.72998046875 84.741640625 207.77490234375 82.72015625H211.12158203125Q210.91943359375 86.31390625 209.15625 87.76263671875Q207.39306640625 89.2113671875 203.08056640625 89.2113671875Q198.16162109375 89.2113671875 196.40966796875 87.67279296875Q194.65771484375 86.13421875 194.65771484375 82.0238671875Z" fill="#FBF7F0"/><path d="M226.70947265625 86.67328125Q229.22509765625 86.67328125 230.2470703125 84.51703125Q231.26904296875 82.36078125 231.26904296875 76.61078125Q231.26904296875 70.86078125 230.25830078125 68.71576171875Q229.24755859375 66.5707421875 226.70947265625 66.5707421875Q224.17138671875 66.5707421875 223.13818359375 68.73822265625Q222.10498046875 70.905703125 222.10498046875 76.61078125Q222.10498046875 82.315859375 223.13818359375 84.4945703125Q224.17138671875 86.67328125 226.70947265625 86.67328125ZM226.70947265625 89.2113671875Q220.39794921875 89.2113671875 216.8154296875 85.85345703125Q213.23291015625 82.495546875 213.23291015625 76.61078125Q213.23291015625 70.7035546875 216.8154296875 67.36810546875Q220.39794921875 64.03265625 226.70947265625 64.03265625Q233.04345703125 64.03265625 236.61474609375 67.36810546875Q240.18603515625 70.7035546875 240.18603515625 76.61078125Q240.18603515625 82.495546875 236.603515625 85.85345703125Q233.02099609375 89.2113671875 226.70947265625 89.2113671875Z" fill="#FBF7F0"/><path d="M244.18408203125 87.8637109375V81.1928125H246.72216796875Q247.03662109375 83.8656640625 248.72119140625 85.26947265625Q250.40576171875 86.67328125 253.30322265625 86.67328125Q255.72900390625 86.67328125 257.0205078125 85.83099609375Q258.31201171875 84.9887109375 258.31201171875 83.4164453125Q258.31201171875 81.9789453125 257.4921875 81.1928125Q256.67236328125 80.4066796875 254.31396484375 79.8226953125L251.03466796875 78.991640625Q247.32861328125 78.0707421875 245.66650390625 76.35248046875Q244.00439453125 74.63421875 244.00439453125 71.714296875Q244.00439453125 67.8285546875 246.69970703125 65.93060546875Q249.39501953125 64.03265625 255.01025390625 64.03265625Q257.12158203125 64.03265625 259.513671875 64.38080078125Q261.90576171875 64.7289453125 264.80322265625 65.47015625V71.4896875H262.26513671875Q262.06298828125 69.0414453125 260.5244140625 67.80609375Q258.98583984375 66.5707421875 256.11083984375 66.5707421875Q253.68505859375 66.5707421875 252.4384765625 67.34564453125Q251.19189453125 68.120546875 251.19189453125 69.60296875Q251.19189453125 70.815859375 251.91064453125 71.5121484375Q252.62939453125 72.2084375 254.49365234375 72.6801171875L257.75048828125 73.511171875Q262.44482421875 74.7016015625 264.24169921875 76.4535546875Q266.03857421875 78.2055078125 266.03857421875 81.327578125Q266.03857421875 85.370546875 263.15234375 87.29095703125Q260.26611328125 89.2113671875 254.17919921875 89.2113671875Q251.95556640625 89.2113671875 249.46240234375 88.874453125Q246.96923828125 88.5375390625 244.18408203125 87.8637109375Z" fill="#FBF7F0"/>
  
</svg>